<svg width="145" height="35" viewBox="0 0 145 35" fill="none" xmlns="http://www.w3.org/2000/svg">
<mask id="mask0_249_65" style="mask-type:luminance" maskUnits="userSpaceOnUse" x="0" y="0" width="145" height="35">
<path d="M0 0H145V34.393H0V0Z" fill="white"/>
</mask>
<g mask="url(#mask0_249_65)">
<path d="M17.144 22.3899C17.8327 22.3899 18.5146 22.2542 19.1508 21.9907C19.7871 21.7271 20.3652 21.3409 20.8521 20.8539C21.3391 20.367 21.7253 19.7889 21.9889 19.1526C22.2524 18.5164 22.388 17.8345 22.388 17.1459C22.388 16.4572 22.2524 15.7753 21.9889 15.1391C21.7253 14.5028 21.3391 13.9247 20.8521 13.4378C20.3652 12.9508 19.7871 12.5646 19.1508 12.301C18.5146 12.0375 17.8327 11.9019 17.144 11.9019C15.7531 11.9019 14.4191 12.4544 13.4356 13.4379C12.4521 14.4215 11.8995 15.7554 11.8995 17.1464C11.8995 18.5373 12.4521 19.8712 13.4356 20.8548C14.4191 21.8383 15.7531 22.3909 17.144 22.3909V22.3899Z" fill="#36393C"/>
<path d="M17.144 34.393C12.404 34.393 8.068 32.577 4.841 29.249C1.714 26.022 0 21.685 0 17.247C0 12.708 1.714 8.472 4.84 5.245C8.069 1.916 12.405 0 17.044 0C21.684 0 26.02 1.715 29.348 5.043L25.415 8.976C23.196 6.656 20.171 5.547 17.045 5.547C13.918 5.547 10.993 6.858 8.775 9.077C4.438 13.616 4.438 20.877 8.775 25.316C10.993 27.534 13.918 28.846 17.045 28.846H17.145C20.271 28.846 23.196 27.636 25.415 25.416L29.348 29.35C27.7477 30.9548 25.8455 32.2266 23.751 33.0922C21.6565 33.9578 19.4113 34.3999 17.145 34.393H17.144Z" fill="#1B94D3"/>
<path d="M31.566 19.7679C32.2614 19.7678 32.9283 19.4914 33.4199 18.9996C33.9115 18.5078 34.1876 17.8408 34.1875 17.1454C34.1874 16.45 33.911 15.7832 33.4192 15.2915C32.9274 14.7999 32.2604 14.5238 31.565 14.5239C30.8696 14.5239 30.2027 14.8002 29.711 15.2919C29.2192 15.7836 28.943 16.4505 28.943 17.1459C28.943 17.8413 29.2192 18.5082 29.711 19C30.2027 19.4917 30.8706 19.7679 31.566 19.7679Z" fill="#1B94D3"/>
<path d="M48.164 22.6542C47.214 22.9962 46.115 23.1672 44.871 23.1672C43.648 23.1672 42.593 22.9352 41.706 22.4702C40.8434 22.0237 40.1345 21.3288 39.671 20.4752C39.206 19.6092 38.974 18.6132 38.974 17.4852C38.974 16.2732 39.235 15.1942 39.759 14.2482C40.2681 13.3167 41.0402 12.5558 41.979 12.0602C42.935 11.5422 44.035 11.2832 45.279 11.2832C46.273 11.2832 47.235 11.4032 48.164 11.6432V14.8412C47.807 14.6343 47.4205 14.4829 47.018 14.3922C46.5773 14.2858 46.1254 14.2321 45.672 14.2322C44.732 14.2322 43.99 14.5022 43.445 15.0422C42.905 15.5812 42.635 16.3122 42.635 17.2372C42.635 18.1562 42.905 18.8832 43.445 19.4172C43.989 19.9462 44.716 20.2102 45.625 20.2102C46.463 20.2102 47.31 19.9972 48.165 19.5702L48.164 22.6542ZM57.069 23.1162L56.564 21.0012H53.134L52.59 23.1162H48.848L52.806 11.6252H57.101L60.827 23.1162H57.069ZM54.889 14.1262H54.809C54.799 14.2532 54.761 14.4642 54.697 14.7582C54.633 15.0522 54.31 16.3132 53.727 18.5412H55.923L55.122 15.4152C55.0159 14.9908 54.9381 14.5599 54.889 14.1252V14.1262ZM67.472 23.1162L66.615 20.6402C66.449 20.1542 66.233 19.7722 65.965 19.4942C65.705 19.2172 65.418 19.0782 65.108 19.0782H64.972V23.1162H61.511V11.6252H66.11C67.718 11.6252 68.904 11.8892 69.668 12.4182C70.437 12.9422 70.821 13.7302 70.821 14.7822C70.821 15.5732 70.597 16.2352 70.148 16.7702C69.705 17.3042 69.043 17.6912 68.161 17.9322V17.9642C68.647 18.1142 69.051 18.3562 69.371 18.6932C69.697 19.0292 69.988 19.5292 70.245 20.1912L71.375 23.1162H67.472ZM67.144 15.2712C67.144 14.8862 67.026 14.5822 66.791 14.3582C66.556 14.1332 66.188 14.0212 65.685 14.0212H64.972V16.6492H65.597C66.062 16.6492 66.436 16.5192 66.719 16.2572C67.002 15.9952 67.144 15.6672 67.144 15.2712ZM81.874 19.5902C81.874 20.7182 81.478 21.5882 80.688 22.2032C79.897 22.8122 78.768 23.1162 77.298 23.1162H72.058V11.6252H76.938C79.988 11.6252 81.513 12.5522 81.513 14.4052C81.513 14.8062 81.417 15.1752 81.225 15.5122C81.032 15.8422 80.738 16.1342 80.343 16.3852C79.953 16.6362 79.523 16.8072 79.053 16.8982V16.9302C79.5712 16.9855 80.0714 17.1523 80.519 17.4192C80.952 17.6752 81.286 17.9992 81.521 18.3892C81.756 18.7732 81.874 19.1742 81.874 19.5902ZM77.835 15.0072C77.835 14.2972 77.277 13.9412 76.161 13.9412H75.519V16.1132H76.521C76.906 16.1132 77.221 16.0112 77.467 15.8082C77.712 15.6002 77.835 15.3332 77.835 15.0072ZM78.195 19.5742C78.195 19.2442 78.075 18.9712 77.835 18.7572C77.595 18.5432 77.277 18.4372 76.882 18.4372H75.519V20.7852H76.673C77.143 20.7852 77.514 20.6782 77.787 20.4642C78.059 20.2442 78.195 19.9482 78.195 19.5742ZM94.127 17.1892C94.127 18.3432 93.879 19.3772 93.382 20.2902C92.9025 21.181 92.1802 21.9175 91.299 22.4142C90.407 22.9162 89.408 23.1672 88.302 23.1672C87.223 23.1672 86.24 22.9242 85.353 22.4372C84.4856 21.9596 83.7716 21.2456 83.294 20.3782C82.803 19.4922 82.557 18.4902 82.557 17.3732C82.557 16.2032 82.806 15.1512 83.302 14.2162C83.774 13.3068 84.5011 12.5547 85.394 12.0522C86.291 11.5402 87.311 11.2832 88.454 11.2832C89.554 11.2832 90.538 11.5292 91.404 12.0202C92.2684 12.5005 92.9686 13.2293 93.414 14.1122C93.89 15.0152 94.127 16.0402 94.127 17.1892ZM90.457 17.2852C90.457 16.3402 90.277 15.5952 89.913 15.0492C89.55 14.5052 89.053 14.2322 88.423 14.2322C87.733 14.2322 87.196 14.4942 86.812 15.0172C86.427 15.5412 86.235 16.2812 86.235 17.2372C86.235 18.1722 86.425 18.9012 86.804 19.4252C87.188 19.9482 87.709 20.2102 88.366 20.2102C88.766 20.2102 89.128 20.0932 89.448 19.8582C89.768 19.6222 90.017 19.2862 90.193 18.8482C90.37 18.4102 90.457 17.8882 90.457 17.2852ZM105.674 23.1162V16.8182C105.674 16.2252 105.693 15.5732 105.73 14.8622L105.754 14.3342H105.658C105.545 14.9629 105.414 15.5882 105.265 16.2092L103.575 23.1162H100.321L98.551 16.2892C98.503 16.1182 98.377 15.4662 98.174 14.3342H98.078C98.153 16.1292 98.19 17.2502 98.19 17.6992V23.1162H95.153V11.6252H100.337L101.916 17.8672C101.953 17.9962 102.001 18.2572 102.06 18.6532C102.124 19.0432 102.164 19.3452 102.18 19.5582H102.228C102.287 19.0722 102.381 18.4982 102.509 17.8352L103.983 11.6252H109.087V23.1162H105.674ZM110.113 23.1162V11.6252H113.574V23.1162H110.113ZM122.629 23.1162L118.574 17.5712C118.254 17.1332 117.992 16.7382 117.789 16.3852H117.757C117.791 17.0203 117.807 17.6562 117.805 18.2922V23.1162H114.6V11.6252H117.869L121.755 16.8982C121.803 16.9682 121.862 17.0502 121.932 17.1462C122.001 17.2422 122.071 17.3412 122.14 17.4432C122.209 17.5442 122.274 17.6432 122.332 17.7392C122.396 17.8352 122.444 17.9212 122.476 17.9962H122.509C122.476 17.7612 122.46 17.3552 122.46 16.7782V11.6252H125.666V23.1162H122.629ZM126.691 23.1162V11.6252H133.846V14.3342H130.152V16.0082H133.622V18.7172H130.152V20.4072H134.111V23.1172H126.691V23.1162ZM141.098 23.1162L140.241 20.6402C140.075 20.1542 139.858 19.7722 139.592 19.4942C139.33 19.2172 139.044 19.0782 138.734 19.0782H138.598V23.1162H135.136V11.6252H139.736C141.344 11.6252 142.53 11.8892 143.293 12.4182C144.063 12.9422 144.447 13.7302 144.447 14.7822C144.447 15.5732 144.223 16.2352 143.774 16.7702C143.331 17.3042 142.669 17.6912 141.787 17.9322V17.9642C142.273 18.1142 142.676 18.3562 142.997 18.6932C143.323 19.0292 143.614 19.5292 143.87 20.1912L145 23.1162H141.098ZM140.769 15.2712C140.769 14.8862 140.652 14.5822 140.417 14.3582C140.182 14.1332 139.813 14.0212 139.311 14.0212H138.598V16.6492H139.223C139.688 16.6492 140.062 16.5192 140.345 16.2572C140.628 15.9952 140.769 15.6672 140.769 15.2712Z" fill="#36393C"/>
</g>
</svg>
