<svg width="87" height="27" viewBox="0 0 87 27" fill="none" xmlns="http://www.w3.org/2000/svg">
<path fill-rule="evenodd" clip-rule="evenodd" d="M57.4855 14.7428C59.0932 14.7428 60.4118 13.8381 61.2573 12.4765V12.7999C61.2573 14.1714 62.0575 14.7428 62.9715 14.7428C63.8856 14.7428 64.2288 14.2857 64.2288 14.2857V9.25714C64.2288 2.9714 65.5999 1.25712 67.543 1.25712C68.6858 1.25712 69.4861 2.17146 69.4861 5.02864H69.3717V12.7999C69.3717 14.1714 70.1713 14.7428 71.0859 14.7428C72 14.7428 72.3432 14.2857 72.3432 14.2857V9.25714C72.3432 2.85714 73.9431 1.14286 75.6574 1.14286C76.8002 1.14286 77.5999 2.0572 77.5999 4.91434V8.68564C77.5999 12.3429 79.2003 14.6286 82.4001 14.6286C85.2573 14.6286 86.8571 12.1142 86.8571 8.57144C86.8571 7.20004 86.5145 6.85714 86.2857 6.85714C85.8287 6.85714 85.8287 7.08564 85.8287 7.08564C85.8287 12 84.3432 13.3713 82.8571 13.3713C81.5999 13.3713 80.6858 12.2285 80.6858 9.71424V5.14284C80.6858 1.71429 78.8571 0 76.1144 0C73.9431 0 72.6858 0.91434 72 2.62863C71.3142 0.91434 69.8287 0 67.8856 0C66.0575 0 64.9146 0.685691 64.2288 1.9428C64.2288 0.571431 63.4286 0 62.5145 0C61.5999 0 61.2573 0.45717 61.2573 0.45717V7.20004C61.2573 12.1142 59.1998 13.4857 57.9425 13.4857C56.3426 13.4857 55.3142 12.3429 55.3142 9.82854V0.57143C55.3142 0.57143 54.9715 0.11426 54.0569 0.11426C53.1429 0.11426 52.3426 0.68569 52.3426 2.0572V7.03374C52.3097 7.04854 52.2835 7.06394 52.2612 7.07744L52.25 7.08444C52.1936 7.11924 52.1652 7.13674 52.1138 7.08564C52.1138 12 50.6284 13.3713 49.1429 13.3713C47.8856 13.3713 46.971 12.2285 46.971 9.71424V5.14284C46.971 1.71429 45.1429 0 42.3996 0C40.457 0 39.0854 0.91434 38.1713 2.39997C38.1713 0.45717 37.3711 0 36.457 0C35.5424 0 35.1998 0.45717 35.1998 0.45717V9.41254C34.8532 12.4034 33.7533 13.4856 32.3432 13.4856C31.0859 13.4856 30.1713 12.3427 30.1713 9.82854V0.57143C30.1713 0.57143 30.0831 0.4541 29.8778 0.33831C29.8019 0.29576 29.7104 0.25335 29.6016 0.21708C29.4219 0.15737 29.1953 0.11426 28.9146 0.11426C28.3432 0.11426 27.7718 0.34277 27.4286 1.0286C26.8644 0.46443 25.8549 0.12305 24.2902 0.1144C24.2266 0.0809199 24.1535 0.05315 24.0709 0.03334C23.9821 0.012 23.8828 0 23.7712 0C21.2573 0 14.0569 0.68569 11.6574 1.48577C10.6283 0.45717 9.14286 0 7.54297 0C5.59989 0 3.8856 1.14286 2.97154 2.62863V1.9428C2.97154 0.571431 2.17132 0 1.25725 0C0.342634 0 0 0.45717 0 0.45717V24.7999C0 26.1714 0.800223 26.7428 1.71429 26.7428C2.62835 26.7428 2.97154 26.2857 2.97154 26.2857V7.20004C2.97154 2.74289 5.59989 1.25712 7.19978 1.25712C8.1144 1.25712 8.91406 1.48577 9.59989 2.39997C6.51451 3.88574 4.34263 6.39994 4.34263 10.2857C4.34263 13.6 6.51451 14.6286 8.1144 14.6286C11.4286 14.6286 13.7143 12 13.5999 7.31434C13.5999 5.37134 13.2573 3.77144 12.5714 2.62863C14.1289 2.15458 17.3315 1.72056 20.0871 1.44573C18.7042 2.58859 17.8287 4.51824 17.8287 7.42854C17.8287 12.5714 19.8856 14.7428 23.4286 14.7428C25.3717 14.7428 26.7427 13.6 27.543 11.8857C28.2288 13.7142 29.7143 14.7428 31.8856 14.7428C33.327 14.7428 34.4487 14.1026 35.2065 13.0132C35.2857 14.2308 36.0491 14.7428 36.9141 14.7428C37.8281 14.7428 38.1713 14.2857 38.1713 14.2857V8.79994C38.1713 2.85714 40.1138 1.25712 42.0569 1.25712C43.1998 1.25712 44 2.17146 44 5.02864V8.79994C44 12.4571 45.5999 14.7428 48.7997 14.7428C50.7506 14.7428 52.115 13.5704 52.7846 11.6989C53.4788 13.6237 55.0067 14.7428 57.4855 14.7428ZM6.05692 10.3999C6.05692 7.20004 7.8856 5.14284 10.2857 3.77144C10.3917 4.19574 10.4978 4.69374 10.5809 5.26564C10.6775 5.92624 10.7427 6.68524 10.7427 7.54284C10.7427 12.2285 9.71429 13.3713 8.1144 13.3713C7.08594 13.3713 6.05692 12.4571 6.05692 10.3999ZM27.2003 4.68564V9.14284C27.2003 12 24.9146 13.4856 23.8856 13.3713C22.2857 13.3713 20.9146 12.6856 20.9146 7.31434C20.9146 1.9428 22.4001 1.25712 24.5714 1.25712C25.8287 1.25712 27.2003 2.51423 27.2003 4.68564Z" fill="black"/>
</svg>
